<svg height="497pt" viewBox="0 0 497.968 497" width="497pt" xmlns="http://www.w3.org/2000/svg"><path d="m318.28125 355.796875-5.296875-1.90625v-96.421875h-16v96.480469l-5.359375 1.871093c-18.277344 6.558594-29.199219 25.296876-25.910156 44.429688 3.292968 19.136719 19.851562 33.144531 39.269531 33.21875 4.488281-.019531 8.945313-.765625 13.191406-2.214844 10.148438-3.5625 18.4375-11.058594 22.992188-20.800781 2.542969-5.300781 3.847656-11.109375 3.816406-16.984375.019531-10.0625-3.785156-19.753906-10.648437-27.113281-4.433594-4.746094-9.941407-8.367188-16.054688-10.558594zm0 0" fill="#d80027"/><path d="m391.664062 378.714844c-.160156-.941406-.238281-1.910156-.433593-2.847656-.351563-1.75-.855469-3.464844-1.320313-5.183594-.285156-1.09375-.503906-2.214844-.796875-3.296875-.472656-1.527344-1.089843-3-1.601562-4.496094-.457031-1.230469-.839844-2.488281-1.351563-3.695313-.59375-1.40625-1.320312-2.757812-1.992187-4.136718-.601563-1.238282-1.136719-2.503906-1.800781-3.71875-.664063-1.214844-1.511719-2.480469-2.269532-3.71875-.761718-1.242188-1.472656-2.535156-2.304687-3.761719-.617188-.894531-1.335938-1.734375-1.984375-2.625-1.105469-1.488281-2.167969-3-3.367188-4.429687-.304687-.367188-.664062-.695313-.976562-1.058594-1.601563-1.871094-3.289063-3.71875-5.082032-5.476563-4.285156-4.042969-8.949218-7.664062-13.925781-10.816406-1.152343-.746094-2.25-1.601563-3.425781-2.273437l-4-2.3125v-177.398438c-.03125-11.980469-5.421875-23.316406-14.691406-30.902344-9.269532-7.589844-21.445313-10.632812-33.195313-8.296875-7.730469 1.523438-14.820312 5.335938-20.351562 10.941407-.90625.898437-1.714844 1.785156-2.527344 2.738281-5.980469 7.160156-9.265625 16.1875-9.28125 25.519531v177.414062l-4 2.3125c-25.691406 14.765626-42.164063 41.527344-43.769531 71.113282-.167969 1.878906-.230469 3.558594-.230469 5.160156-.003906 6.375.679687 12.730469 2.046875 18.960938 2.257812 10.316406 6.382812 20.136718 12.167969 28.972656 19.828125 30.519531 56.398437 45.6875 92.003906 38.15625s62.902344-36.203125 68.675781-72.136719c.25-1.515625.386719-3.035156.554688-4.546875.078125-.800781.214844-1.597656.277344-2.398438.183593-2.273437.273437-4.609374.273437-7.007812 0-2.992188-.152344-5.960938-.441406-8.898438-.199219-1.972656-.550781-3.902343-.878907-5.855468zm-36 38.539062c-6.40625 13.65625-18.039062 24.15625-32.28125 29.132813-5.921874 2.027343-12.136718 3.070312-18.398437 3.082031-26.160156-.035156-48.808594-18.175781-54.554687-43.695312-5.75-25.519532 6.9375-51.617188 30.554687-62.867188v-197.4375c0-13.253906 10.746094-24 24-24 13.226563.066406 23.933594 10.773438 24 24v197.480469c6.421875 3.0625 12.210937 7.308593 17.0625 12.511719 9.628906 10.308593 14.96875 23.898437 14.9375 38.007812.035156 8.230469-1.792969 16.363281-5.351563 23.785156zm0 0" fill="#565659"/><path d="m312.984375 145.46875c.019531-2.082031-.808594-4.085938-2.296875-5.542969-1.480469-1.574219-3.542969-2.460937-5.703125-2.457031-4.417969 0-8 3.582031-8 8v96h16zm0 0" fill="#ffda44"/><path d="m408.3125 157.46875c-10.316406-17.816406-13.335938-38.929688-8.425781-58.921875-19.980469 4.925781-41.09375 1.917969-58.902344-8.390625-17.816406-10.316406-30.980469-27.09375-36.753906-46.855469-14.863281 14.238281-34.660157 22.183594-55.246094 22.167969-20.585937.015625-40.382813-7.929688-55.25-22.167969-5.765625 19.757813-18.929687 36.535157-36.75 46.839844-17.8125 10.320313-38.929687 13.339844-58.921875 8.421875 4.914062 19.984375 1.90625 41.089844-8.390625 58.90625-10.3125 17.816406-27.09375 30.980469-46.855469 36.75 14.238282 14.867188 22.183594 34.664062 22.167969 55.25.015625 20.585938-7.929687 40.382812-22.167969 55.246094 19.761719 5.769531 36.535156 18.933594 46.839844 36.753906 10.316406 17.8125 13.332031 38.929688 8.421875 58.917969 41.570313-10.191407 83.785156 14.207031 95.707031 55.3125 5.730469-5.441407 12.222656-10.023438 19.269532-13.597657-.191407-.371093-.328126-.800781-.511719-1.128906-1.667969-3.214844-3.171875-6.511718-4.496094-9.878906-.078125-.210938-.175781-.410156-.253906-.609375-1.3125-3.507813-2.433594-7.082031-3.359375-10.710937-.175782-.671876-.363282-1.335938-.523438-2.015626-.847656-3.554687-1.511718-7.152343-1.980468-10.777343-.089844-.664063-.144532-1.328125-.21875-1.984375-.449219-3.796875-.691407-7.617188-.726563-11.441406-70.75-23.507813-113.984375-94.886719-102.054687-168.476563 11.929687-73.59375 75.5-127.65625 150.054687-127.609375 5.332031.019531 10.660156.328125 15.960937.917969.160157-.160157.300782-.335938.460938-.496094 1.300781-1.316406 2.667969-2.566406 4.097656-3.742187 9.980469-8.25 22.535156-12.734376 35.480469-12.679688 30.925781 0 56 25.070312 56 56v9.488281c44.324219 48.136719 52.683594 119.3125 20.710937 176.40625 1.074219 1.167969 2.199219 2.296875 3.199219 3.511719.5625.671875 1.042969 1.402344 1.601563 2.089844 1.703125 2.152344 3.375 4.320312 4.894531 6.582031.699219 1.03125 1.28125 2.113281 1.9375 3.199219 1.230469 1.984375 2.464844 4 3.558594 6.035156.65625 1.238281 1.21875 2.527344 1.824219 3.789062.9375 1.9375 1.855468 3.875 2.664062 5.867188.160156.390625.378906.757812.527344 1.160156 8.425781-24.605468 28.296875-43.570312 53.265625-50.839844-29.558594-30.902343-29.558594-79.597656 0-110.496093-19.773438-5.777344-36.554688-18.953125-46.855469-36.792969zm0 0" fill="#d80027"/><path d="m369.71875 312.035156c23.136719-44.605468 19.773438-98.335937-8.734375-139.710937v133.457031c2.976563 1.90625 5.859375 3.976562 8.648437 6.199219zm0 0" fill="#ffda44"/><path d="m223.191406 329.261719c1.382813-1.769531 2.871094-3.449219 4.375-5.121094 1.074219-1.199219 2.105469-2.402344 3.242188-3.570313 1.777344-1.8125 3.679687-3.503906 5.597656-5.183593 1.019531-.886719 1.960938-1.832031 3.019531-2.6875 3.066407-2.492188 6.269531-4.804688 9.597657-6.933594v-168.296875c.027343-2.90625.28125-5.804688.761718-8.671875.09375-.640625.199219-1.273437.320313-1.90625.519531-2.769531 1.25-5.5 2.175781-8.167969.144531-.398437.335938-.796875.488281-1.191406.503907-1.328125 1-2.671875 1.597657-3.960938-1.78125-.066406-3.574219-.101562-5.382813-.101562-65.972656-.003906-122.433594 47.339844-133.929687 112.300781-11.496094 64.960938 25.289062 128.808594 87.257812 151.441407.046875-.359376.160156-.695313.214844-1.054688.304687-1.839844.746094-3.640625 1.144531-5.449219.433594-1.960937.855469-3.917969 1.398437-5.839843.546876-1.917969 1.152344-3.679688 1.785157-5.503907.632812-1.824219 1.28125-3.65625 2.007812-5.449219.730469-1.789062 1.503907-3.484374 2.320313-5.199218.816406-1.710938 1.753906-3.558594 2.703125-5.304688.882812-1.597656 1.785156-3.199218 2.753906-4.742187 1.09375-1.777344 2.269531-3.496094 3.480469-5.199219 1-1.425781 2-2.839844 3.070312-4.207031zm-30.207031-151.792969h32v16h-32zm-16 64h48v16h-48zm16 72v-16h32v16zm0 0" fill="#ffda44"/><g fill="#231f20"><path d="m477.871094 195.988281 20.097656-13.257812-24-1.40625c-21.523438-1.195313-40.996094-13.167969-51.777344-31.835938s-11.421875-41.515625-1.703125-60.757812l10.816407-21.550781-21.550782 10.816406c-19.242187 9.730468-42.09375 9.09375-60.769531-1.683594-18.671875-10.78125-30.648437-30.253906-31.847656-51.78125l-1.410157-24.046875-13.253906 20.105469c-11.828125 18.019531-31.933594 28.875-53.488281 28.878906-21.554687-.003906-41.660156-10.859375-53.488281-28.878906l-13.257813-20.105469-1.40625 24.046875c-1.199219 21.523438-13.171875 40.988281-31.835937 51.765625-18.667969 10.777344-41.507813 11.417969-60.75 1.699219l-21.550782-10.816406 10.816407 21.550781c9.714843 19.246093 9.070312 42.089843-1.710938 60.753906-10.78125 18.667969-30.246093 30.640625-51.769531 31.839844l-24 1.40625 20.097656 13.257812c18.007813 11.832031 28.851563 31.933594 28.855469 53.480469-.011719 21.554688-10.867187 41.65625-28.886719 53.480469l-20.097656 13.253906 24 1.410156c21.523438 1.195313 40.992188 13.167969 51.777344 31.835938 10.78125 18.664062 11.421875 41.511719 1.703125 60.753906l-10.785157 21.554687 21.550782-10.816406c19.242187-9.714844 42.082031-9.074218 60.746094 1.703125 18.664062 10.777344 30.636718 30.242188 31.839843 51.757813l1.398438 24 13.257812-20c6.601563-9.804688 15.75-17.628906 26.464844-22.628906 23.9375 32.082031 64.191406 47.539062 103.453125 39.730468 39.261719-7.804687 70.535156-37.492187 80.378906-76.292968 1.3125.554687 2.628906 1.082031 3.933594 1.738281l21.546875 10.773437-10.808594-21.519531c-9.714843-19.242187-9.074219-42.085937 1.707031-60.753906 10.78125-18.664063 30.25-30.636719 51.773438-31.835938l24-1.410156-20.097656-13.253906c-18.027344-11.820313-28.890625-31.925781-28.890625-53.480469 0-21.558594 10.863281-41.664062 28.890625-53.480469zm-264 147.421875c-.949219 1.746094-1.847656 3.503906-2.703125 5.304688-.855469 1.800781-1.601563 3.441406-2.320313 5.199218-.71875 1.761719-1.375 3.617188-2.007812 5.449219-.632813 1.832031-1.253906 3.640625-1.785156 5.503907-.527344 1.863281-.964844 3.878906-1.398438 5.839843-.398438 1.808594-.800781 3.609375-1.144531 5.449219-.054688.359375-.167969.695312-.214844 1.054688-61.96875-22.636719-98.753906-86.484376-87.253906-151.449219 11.5-64.964844 67.964843-112.304688 133.941406-112.292969 1.808594 0 3.589844.035156 5.351563.101562-.609376 1.289063-1.105469 2.632813-1.601563 3.960938-.148437.410156-.34375.800781-.488281 1.191406-.925782 2.667969-1.652344 5.398438-2.175782 8.167969-.117187.632813-.222656 1.265625-.316406 1.90625-.484375 2.867187-.738281 5.765625-.769531 8.671875v168.296875c-3.328125 2.128906-6.535156 4.441406-9.601563 6.933594-1.054687.855469-2 1.800781-3.015624 2.6875-1.917969 1.679687-3.824219 3.371093-5.597657 5.183593-1.136719 1.144532-2.167969 2.402344-3.242187 3.570313-1.503906 1.671875-2.992188 3.351563-4.375 5.121094-1.074219 1.367187-2.074219 2.78125-3.074219 4.207031-1.207031 1.703125-2.398437 3.421875-3.476563 5.199219-.929687 1.550781-1.832031 3.136719-2.714843 4.742187zm178.824218 57.105469c-.0625.800781-.199218 1.601563-.28125 2.398437-.167968 1.515626-.300781 3.035157-.550781 4.546876-7.296875 45.292968-48.164062 77.382812-93.898437 73.722656-45.730469-3.65625-80.980469-41.835938-80.980469-87.714844 0-1.601562.0625-3.28125.230469-5.160156 1.605468-29.585938 18.078125-56.347656 43.769531-71.113282l4-2.3125v-177.414062c-.003906-9.335938 3.261719-18.375 9.230469-25.554688.800781-.949218 1.601562-1.839843 2.527344-2.734374 5.539062-5.59375 12.628906-9.394532 20.355468-10.910157 11.746094-2.335937 23.925782.707031 33.195313 8.296875 9.269531 7.585938 14.65625 18.921875 14.691406 30.902344v177.398438l4 2.3125c1.175781.679687 2.273437 1.527343 3.421875 2.273437 4.96875 3.152344 9.625 6.773437 13.90625 10.816406 1.792969 1.757813 3.457031 3.605469 5.078125 5.476563.3125.363281.671875.691406.976563 1.058594 1.199218 1.429687 2.265624 2.941406 3.367187 4.429687.648437.890625 1.371094 1.730469 1.984375 2.625.800781 1.226563 1.539062 2.503906 2.304688 3.761719.769531 1.253906 1.601562 2.445312 2.273437 3.71875.671875 1.273437 1.199219 2.480468 1.800781 3.71875.671875 1.378906 1.398438 2.730468 1.992188 4.136718.511718 1.207032.894531 2.464844 1.351562 3.695313.550782 1.496094 1.167969 2.96875 1.597656 4.496094.328126 1.082031.546876 2.203125.800782 3.296875.464844 1.71875.96875 3.433594 1.320312 5.183594.191406.9375.273438 1.90625.433594 2.847656.328125 1.945312.679688 3.882812.878906 5.855468.289063 2.9375.4375 5.90625.4375 8.898438.074219 2.398438-.015625 4.734375-.199218 7.046875zm-31.710937-94.734375v-133.457031c28.507813 41.375 31.871094 95.105469 8.734375 139.710937l-.085938-.054687c-2.789062-2.207031-5.671874-4.273438-8.648437-6.199219zm72-56.3125c-.015625 20.585938 7.925781 40.382812 22.167969 55.246094-24.96875 7.269531-44.839844 26.238281-53.265625 50.839844-.152344-.398438-.367188-.796876-.527344-1.160157-.800781-1.992187-1.726563-3.925781-2.664063-5.863281-.605468-1.261719-1.167968-2.550781-1.824218-3.792969-1.09375-2.054687-2.328125-4.046875-3.558594-6.03125-.65625-1.046875-1.242188-2.128906-1.9375-3.199219-1.519531-2.265624-3.199219-4.433593-4.894531-6.582031-.535157-.691406-1.015625-1.417969-1.601563-2.089843-1.007812-1.214844-2.136718-2.34375-3.199218-3.511719 31.957031-57.082031 23.605468-128.234375-20.695313-176.367188v-9.488281c-.003906-21.640625-12.472656-41.34375-32.035156-50.605469-19.558594-9.261719-42.703125-6.425781-59.445313 7.285157-1.429687 1.175781-2.796875 2.425781-4.097656 3.742187-.160156.160156-.300781.335937-.460938.496094-5.300781-.589844-10.628906-.898438-15.960937-.917969-74.554687-.046875-138.125 54.015625-150.054687 127.609375-11.929688 73.589844 31.304687 144.96875 102.054687 168.476563.027344 3.8125.257813 7.621093.695313 11.410156.074218.65625.128906 1.320312.214843 1.984375.472657 3.625 1.132813 7.21875 1.984375 10.773437.160156.679688.34375 1.34375.519532 2.015625.925781 3.628907 2.050781 7.207031 3.363281 10.714844.078125.199219.175781.398437.253906.605469 1.324219 3.371094 2.824219 6.667968 4.496094 9.882812.183593.367188.320312.796875.511719 1.125-7.046876 3.578125-13.539063 8.160156-19.269532 13.601563-11.882812-41.125-54.105468-65.539063-95.675781-55.328125 4.898437-19.976563 1.878906-41.070313-8.421875-58.871094-10.308594-17.816406-27.082031-30.972656-46.839844-36.738281 14.242188-14.867188 22.1875-34.671875 22.167969-55.261719.015625-20.585938-7.929687-40.382812-22.167969-55.25 19.761719-5.769531 36.542969-18.933594 46.855469-36.75 10.304687-17.8125 13.316406-38.921875 8.40625-58.90625 19.988281 4.910156 41.097656 1.894531 58.90625-8.421875 17.8125-10.308594 30.972656-27.082031 36.734375-46.839844 14.871094 14.242188 34.671875 22.1875 55.265625 22.167969 20.585937.015625 40.382813-7.929688 55.246094-22.167969 5.773437 19.761719 18.9375 36.539063 36.753906 46.855469 17.808594 10.316406 38.921875 13.328125 58.902344 8.40625-10.15625 41.539062 14.207031 83.710938 55.265625 95.65625-14.242188 14.867188-22.183594 34.664062-22.167969 55.25zm0 0"/><path d="m328.984375 342.949219v-197.480469c-.066406-13.226562-10.773437-23.933594-24-24-13.253906 0-24 10.746094-24 24v197.4375c-23.617187 11.25-36.304687 37.347656-30.554687 62.867188 5.746093 25.519531 28.394531 43.660156 54.554687 43.695312 6.261719-.011719 12.476563-1.054688 18.398437-3.082031 14.238282-4.976563 25.871094-15.480469 32.273438-29.132813 3.550781-7.425781 5.371094-15.558594 5.328125-23.785156.03125-14.109375-5.308594-27.699219-14.9375-38.007812-4.851563-5.203126-10.640625-9.449219-17.0625-12.511719zm-32-197.480469c0-4.417969 3.582031-8 8-8 2.160156-.003906 4.222656.882812 5.703125 2.457031 1.488281 1.457031 2.316406 3.460938 2.296875 5.542969v96h-16zm44.183594 264.941406c-4.554688 9.746094-12.84375 17.242188-22.992188 20.800782-4.246093 1.464843-8.699219 2.226562-13.191406 2.257812-19.417969-.074219-35.976563-14.082031-39.269531-33.21875-3.289063-19.132812 7.632812-37.871094 25.910156-44.429688l5.359375-1.871093v-96.480469h16v96.421875l5.296875 1.90625c6.113281 2.191406 11.621094 5.8125 16.054688 10.558594 6.863281 7.359375 10.667968 17.050781 10.648437 27.113281.027344 5.863281-1.277344 11.65625-3.816406 16.941406zm0 0"/><path d="m192.984375 177.46875h32v16h-32zm0 0"/><path d="m176.984375 241.46875h48v16h-48zm0 0"/><path d="m192.984375 297.46875h32v16h-32zm0 0"/><path d="m448.984375 249.46875c.007813-21.554688 10.867187-41.65625 28.886719-53.480469l20.097656-13.257812-24-1.40625c-21.523438-1.195313-40.996094-13.167969-51.777344-31.835938s-11.421875-41.515625-1.703125-60.757812l10.816407-21.550781-21.550782 10.816406c-19.242187 9.730468-42.09375 9.09375-60.769531-1.683594-18.671875-10.78125-30.648437-30.253906-31.847656-51.78125l-1.410157-24.046875-13.253906 20.105469c-11.828125 18.019531-31.933594 28.875-53.488281 28.878906-21.554687-.003906-41.660156-10.859375-53.488281-28.878906l-13.257813-20.105469-1.40625 24.046875c-1.199219 21.523438-13.171875 40.988281-31.835937 51.765625-18.667969 10.777344-41.507813 11.417969-60.75 1.699219l-21.550782-10.816406 10.816407 21.550781c9.714843 19.246093 9.070312 42.089843-1.710938 60.753906-10.78125 18.667969-30.246093 30.640625-51.769531 31.839844l-24 1.40625 20.097656 13.257812c18.007813 11.832031 28.851563 31.933594 28.855469 53.480469-.011719 21.554688-10.867187 41.65625-28.886719 53.480469l-20.097656 13.253906 24 1.410156c21.523438 1.195313 40.992188 13.167969 51.777344 31.835938 10.78125 18.664062 11.421875 41.511719 1.703125 60.753906l-10.785157 21.554687 21.550782-10.816406c19.242187-9.714844 42.082031-9.074218 60.746094 1.703125 18.664062 10.777344 30.636718 30.242188 31.839843 51.757813l1.398438 24 13.257812-20c6.601563-9.804688 15.75-17.628906 26.464844-22.628906 23.9375 32.082031 64.191406 47.539062 103.453125 39.730468 39.261719-7.804687 70.535156-37.492187 80.378906-76.292968 1.3125.554687 2.628906 1.082031 3.933594 1.738281l21.546875 10.773437-10.808594-21.519531c-9.714843-19.242187-9.074219-42.085937 1.707031-60.753906 10.78125-18.664063 30.25-30.636719 51.773438-31.835938l24-1.410156-20.097656-13.253906c-18.007813-11.832031-28.851563-31.933594-28.855469-53.480469zm-196.257813-131.9375c-.152343.410156-.34375.800781-.488281 1.191406-.925781 2.667969-1.652343 5.398438-2.175781 8.167969-.117188.632813-.222656 1.265625-.320312 1.90625-.476563 2.867187-.730469 5.765625-.757813 8.671875v168.296875c-3.328125 2.128906-6.535156 4.441406-9.601563 6.933594-1.054687.855469-2 1.800781-3.015624 2.6875-1.917969 1.679687-3.824219 3.371093-5.597657 5.183593-1.136719 1.144532-2.167969 2.402344-3.242187 3.570313-1.503906 1.671875-2.992188 3.351563-4.375 5.121094-1.074219 1.367187-2.074219 2.78125-3.074219 4.207031-1.207031 1.703125-2.398437 3.421875-3.476563 5.199219-.96875 1.550781-1.875 3.136719-2.753906 4.742187-.953125 1.746094-1.847656 3.503906-2.703125 5.304688-.855469 1.800781-1.601562 3.441406-2.320312 5.199218-.71875 1.761719-1.375 3.617188-2.007813 5.449219-.632812 1.832031-1.257812 3.640625-1.785156 5.503907-.527344 1.863281-.96875 3.878906-1.398438 5.839843-.402343 1.808594-.800781 3.609375-1.144531 5.449219-.054687.359375-.167969.695312-.214843 1.054688-61.976563-22.636719-98.761719-86.492188-87.253907-151.460938 11.507813-64.96875 67.984375-112.304688 133.964844-112.28125 1.808594 0 3.589844.035156 5.351563.101562-.609376 1.289063-1.105469 2.632813-1.609376 3.960938zm52.257813 363.9375c-29.804687.046875-57.59375-15.042969-73.785156-40.066406-5.785157-8.835938-9.910157-18.65625-12.167969-28.972656-1.367188-6.230469-2.050781-12.585938-2.046875-18.960938 0-1.601562.0625-3.28125.230469-5.160156 1.605468-29.585938 18.078125-56.347656 43.769531-71.113282l4-2.3125v-177.414062c-.003906-9.335938 3.261719-18.375 9.230469-25.554688.800781-.949218 1.601562-1.839843 2.527344-2.734374 5.539062-5.59375 12.628906-9.394532 20.355468-10.910157 11.746094-2.335937 23.925782.707031 33.195313 8.296875 9.269531 7.585938 14.65625 18.921875 14.691406 30.902344v177.398438l4 2.3125c1.175781.679687 2.273437 1.527343 3.421875 2.273437 4.96875 3.152344 9.625 6.773437 13.90625 10.816406 1.792969 1.757813 3.457031 3.605469 5.078125 5.476563.3125.363281.671875.691406.976563 1.058594 1.199218 1.429687 2.265624 2.941406 3.367187 4.429687.648437.890625 1.371094 1.730469 1.984375 2.625.800781 1.226563 1.539062 2.503906 2.304688 3.761719.769531 1.253906 1.601562 2.445312 2.273437 3.71875.671875 1.273437 1.199219 2.480468 1.800781 3.71875.671875 1.378906 1.398438 2.730468 1.992188 4.136718.511718 1.207032.894531 2.464844 1.351562 3.695313.550782 1.496094 1.167969 2.96875 1.597656 4.496094.328126 1.082031.546876 2.203125.800782 3.296875.464844 1.71875.96875 3.433594 1.320312 5.183594.191406.9375.273438 1.90625.433594 2.847656.328125 1.945312.679688 3.882812.878906 5.855468.289063 2.9375.4375 5.90625.4375 8.898438 0 2.398438-.085937 4.734375-.269531 7.046875-.066406.800781-.199219 1.601563-.28125 2.398437-.167969 1.515626-.304687 3.035157-.550781 4.546876-6.679688 42.734374-43.570313 74.179687-86.824219 74.007812zm64.734375-169.433594-.085938-.054687c-2.789062-2.207031-5.671874-4.273438-8.648437-6.199219v-133.457031c28.507813 41.375 31.871094 95.105469 8.734375 139.710937zm38.578125 29.433594c-2.585937 4.476562-4.730469 9.195312-6.402344 14.085938-.152343-.398438-.367187-.796876-.527343-1.160157-.800782-1.992187-1.726563-3.925781-2.664063-5.863281-.605469-1.261719-1.167969-2.550781-1.824219-3.792969-1.09375-2.054687-2.328125-4.046875-3.558594-6.03125-.65625-1.046875-1.242187-2.128906-1.9375-3.199219-1.519531-2.265624-3.199218-4.433593-4.894531-6.582031-.535156-.691406-1.015625-1.417969-1.601562-2.089843-1.007813-1.214844-2.132813-2.34375-3.199219-3.511719 31.953125-57.082031 23.601562-128.238281-20.703125-176.367188v-9.488281c-.003906-21.640625-12.472656-41.34375-32.035156-50.605469-19.558594-9.261719-42.703125-6.425781-59.445313 7.285157-1.429687 1.175781-2.796875 2.425781-4.097656 3.742187-.160156.160156-.300781.335937-.460938.496094-5.300781-.589844-10.628906-.898438-15.960937-.917969-74.554687-.046875-138.125 54.015625-150.054687 127.609375-11.929688 73.589844 31.304687 144.96875 102.054687 168.476563.027344 3.8125.257813 7.621093.695313 11.410156.074218.65625.128906 1.320312.214843 1.984375.472657 3.625 1.132813 7.21875 1.984375 10.773437.160156.679688.34375 1.34375.519532 2.015625.925781 3.628907 2.050781 7.207031 3.363281 10.714844.078125.199219.175781.398437.253906.605469 1.324219 3.371094 2.824219 6.667968 4.496094 9.882812.183593.367188.320312.796875.511719 1.125-7.046876 3.578125-13.539063 8.160156-19.269532 13.601563-11.882812-41.125-54.105468-65.539063-95.675781-55.328125 4.898437-19.976563 1.878906-41.070313-8.421875-58.871094-10.308594-17.816406-27.082031-30.972656-46.839844-36.738281 14.242188-14.867188 22.1875-34.671875 22.167969-55.261719.015625-20.585938-7.929687-40.382812-22.167969-55.25 19.761719-5.769531 36.542969-18.933594 46.855469-36.75 10.304687-17.8125 13.316406-38.921875 8.40625-58.90625 19.988281 4.910156 41.097656 1.894531 58.90625-8.421875 17.8125-10.308594 30.972656-27.082031 36.734375-46.839844 14.871094 14.242188 34.671875 22.1875 55.265625 22.167969 20.585937.015625 40.382813-7.929688 55.246094-22.167969 5.773437 19.761719 18.9375 36.539063 36.753906 46.855469 17.808594 10.316406 38.921875 13.328125 58.902344 8.40625-10.15625 41.539062 14.207031 83.710938 55.265625 95.65625-29.558594 30.902344-29.558594 79.59375 0 110.496094-19.761719 5.773437-36.542969 18.933594-46.855469 36.753906zm0 0"/><path d="m328.984375 342.949219v-197.480469c-.066406-13.226562-10.773437-23.933594-24-24-13.253906 0-24 10.746094-24 24v197.4375c-23.617187 11.25-36.304687 37.347656-30.554687 62.867188 5.746093 25.519531 28.394531 43.660156 54.554687 43.695312 6.261719-.011719 12.476563-1.054688 18.398437-3.082031 14.238282-4.976563 25.871094-15.480469 32.273438-29.132813 3.550781-7.425781 5.371094-15.558594 5.328125-23.785156.03125-14.109375-5.308594-27.699219-14.9375-38.007812-4.851563-5.203126-10.640625-9.449219-17.0625-12.511719zm-32-197.480469c0-4.417969 3.582031-8 8-8 2.160156-.003906 4.222656.882812 5.703125 2.457031 1.488281 1.457031 2.316406 3.460938 2.296875 5.542969v96h-16zm44.183594 264.941406c-4.554688 9.746094-12.84375 17.242188-22.992188 20.800782-4.246093 1.464843-8.699219 2.226562-13.191406 2.257812-19.417969-.074219-35.976563-14.082031-39.269531-33.21875-3.289063-19.132812 7.632812-37.871094 25.910156-44.429688l5.359375-1.871093v-96.480469h16v96.421875l5.296875 1.90625c6.113281 2.191406 11.621094 5.8125 16.054688 10.558594 6.863281 7.359375 10.667968 17.050781 10.648437 27.113281.027344 5.863281-1.277344 11.65625-3.816406 16.941406zm0 0"/><path d="m192.984375 177.46875h32v16h-32zm0 0"/><path d="m176.984375 241.46875h48v16h-48zm0 0"/><path d="m192.984375 297.46875h32v16h-32zm0 0"/></g></svg>